HIERARCHY
ROOT Hips
{
	OFFSET 0.000000 0.000000 0.000000
	CHANNELS 6 Xposition Yposition Zposition Zrotation Yrotation Xrotation 
	JOINT LHipJoint
	{
		OFFSET 0.000000 0.000000 0.000000
		CHANNELS 3 Zrotation Yrotation Xrotation
		JOINT LeftUpLeg
		{
			OFFSET 1.363060 -1.794630 0.839290
			CHANNELS 3 Zrotation Yrotation Xrotation
			JOINT LeftLeg
			{
				OFFSET 2.448110 -6.726130 0.000000
				CHANNELS 3 Zrotation Yrotation Xrotation
				JOINT LeftFoot
				{
					OFFSET 2.562200 -7.039590 0.000000
					CHANNELS 3 Zrotation Yrotation Xrotation
					JOINT LeftToeBase
					{
						OFFSET 0.157640 -0.433110 2.322550
						CHANNELS 3 Zrotation Yrotation Xrotation
						End Site
						{
							OFFSET 0.000000 0.000000 0.000000
						}
					}
				}
			}
		}
	}
	JOINT RHipJoint
	{
		OFFSET 0.000000 0.000000 0.000000
		CHANNELS 3 Zrotation Yrotation Xrotation
		JOINT RightUpLeg
		{
			OFFSET -1.305520 -1.794630 0.839290
			CHANNELS 3 Zrotation Yrotation Xrotation
			JOINT RightLeg
			{
				OFFSET -2.542530 -6.985550 0.000000
				CHANNELS 3 Zrotation Yrotation Xrotation
				JOINT RightFoot
				{
					OFFSET -2.568260 -7.056230 0.000000
					CHANNELS 3 Zrotation Yrotation Xrotation
					JOINT RightToeBase
					{
						OFFSET -0.164730 -0.452590 2.363150
						CHANNELS 3 Zrotation Yrotation Xrotation
						End Site
						{
							OFFSET 0.000000 0.000000 0.000000
						}
					}
				}
			}
		}
	}
}
MOTION
Frames: 22
Frame Time: 0.008333
4.403014 16.897077 -7.404633 178.766891 12.527680 -168.390135 -8.690476 1.701007 4.322832 -22.221540 -5.113519 -31.441070 -3.384210 -0.275721 17.624102 0.682233 1.607161 -8.583675 -0.006400 0.000000 -1.028600 11.512344 -3.404455 -1.935747 -4.488290 -20.288398 -5.883372 -0.478611 -2.577282 42.627025 -2.017580 -3.830686 32.847916 -1.575000 -0.000001 -72.174300
4.475552 16.898101 -7.533458 178.440749 12.008222 -168.588418 -8.642801 1.768805 4.196145 -22.642906 -4.727705 -30.864946 -3.442492 -0.232393 18.025864 0.614197 1.119550 -8.796478 -0.029600 0.000000 -0.550200 11.631057 -3.165355 -2.027366 -5.056621 -20.553320 -7.245757 -0.571509 -2.711617 45.342164 -2.247310 -6.595155 31.371425 -3.169600 0.000001 -67.625900
4.544936 16.901417 -7.661541 178.173019 11.536411 -168.720806 -8.612343 1.822493 4.098356 -22.923588 -4.450392 -30.303500 -3.485552 -0.199856 18.366968 0.559128 0.686051 -9.058256 -0.050600 0.000000 -0.256900 11.717996 -2.940882 -2.095302 -5.492659 -20.670221 -8.703771 -0.656631 -2.862733 47.874009 -2.422311 -8.882090 29.362636 -4.348101 0.000000 -63.679200
4.611368 16.907256 -7.789157 177.963112 11.123696 -168.790565 -8.599939 1.862891 4.026666 -23.072575 -4.273178 -29.755864 -3.512528 -0.177845 18.642292 0.520451 0.339763 -9.350344 -0.069000 0.000000 -0.169000 11.775758 -2.733120 -2.131531 -5.797125 -20.615222 -10.252017 -0.737534 -3.022123 50.187588 -2.536520 -10.573276 26.971741 -5.040699 0.000000 -60.393200
4.675241 16.915633 -7.916494 177.806625 10.776660 -168.805310 -8.604931 1.891499 3.975267 -23.106676 -4.176030 -29.219534 -3.524170 -0.165815 18.848096 0.499660 0.100513 -9.657918 -0.085600 0.000000 -0.286900 11.807834 -2.541211 -2.130113 -5.979754 -20.374409 -11.874740 -0.813860 -3.179542 52.248262 -2.588377 -11.640877 24.361722 -5.272000 -0.000001 -57.850700
4.737097 16.926425 -8.043566 177.695759 10.496879 -168.777180 -8.624474 1.910387 3.936867 -23.048826 -4.134392 -28.685409 -3.522596 -0.163354 18.978917 0.496720 -0.023948 -9.970146 -0.102200 0.000000 -0.589700 11.818937 -2.362288 -2.088627 -6.062140 -19.948246 -13.546741 -0.882612 -3.325828 54.028245 -2.579498 -12.116523 21.680327 -5.125400 -0.000000 -56.025600
4.797533 16.939386 -8.170326 177.622386 10.280938 -168.721561 -8.654974 1.921722 3.902793 -22.923921 -4.119160 -28.141535 -3.510912 -0.169859 19.030943 0.509838 -0.040659 -10.281214 -0.120500 0.000000 -1.033900 11.813722 -2.192304 -2.007731 -6.071136 -19.347863 -15.235954 -0.939882 -3.453508 55.504455 -2.515776 -12.077777 19.060385 -4.715999 -0.000000 -54.892000
4.857145 16.954225 -8.296637 177.577738 10.122333 -168.654881 -8.692769 1.927526 3.864444 -22.754104 -4.101933 -27.573410 -3.492731 -0.184628 19.001650 0.535746 0.030859 -10.588981 -0.141600 0.000000 -1.560701 11.796441 -2.026777 -1.890714 -6.034277 -18.592517 -16.908059 -0.982596 -3.557386 56.662461 -2.407575 -11.633296 16.613833 -4.163500 -0.000000 -54.421800
4.916628 16.970542 -8.422390 177.552360 10.012034 -168.592803 -8.733628 1.929754 3.815149 -22.558564 -4.061345 -26.965314 -3.471849 -0.206995 18.889484 0.570379 0.163912 -10.893750 -0.166100 -0.000000 -2.106900 11.771334 -1.861472 -1.743340 -5.977110 -17.710304 -18.533438 -1.009326 -3.635375 57.502482 -2.267736 -10.902897 14.407489 -3.566000 0.000000 -54.412400
4.976372 16.987985 -8.547478 177.541602 9.940142 -168.548123 -8.774657 1.929826 3.749967 -22.350284 -3.981999 -26.302652 -3.451394 -0.236256 18.693590 0.609073 0.327475 -11.195766 -0.193400 -0.000000 -2.614200 11.741153 -1.692651 -1.572143 -5.917424 -16.729337 -20.087835 -1.020727 -3.686847 58.032392 -2.112453 -10.019550 12.486908 -2.999800 -0.000000 -54.779901
5.036850 17.006175 -8.671893 177.539032 9.896778 -168.530073 -8.812991 1.928915 3.667370 -22.136758 -3.859870 -25.573071 -3.433902 -0.271874 18.412967 0.647449 0.492882 -11.493875 -0.222500 0.000000 -3.041000 11.708346 -1.517667 -1.384173 -5.867231 -15.679308 -21.556325 -1.018842 -3.713451 58.273654 -1.956833 -9.103912 10.845694 -2.507699 0.000000 -55.263600
5.098306 17.024773 -8.795685 177.541795 9.873536 -168.542664 -8.847530 1.927781 3.568759 -21.918815 -3.698960 -24.770728 -3.420643 -0.313140 18.049034 0.681642 0.635699 -11.784718 -0.251900 0.000000 -3.362900 11.673559 -1.335171 -1.185110 -5.828529 -14.584185 -22.933028 -1.006407 -3.717198 58.251303 -1.814730 -8.264047 9.453891 -2.110900 0.000000 -55.697200
5.160726 17.043447 -8.919045 177.550297 9.863445 -168.584787 -8.876864 1.926848 3.458129 -21.694954 -3.513856 -23.891477 -3.411661 -0.359758 17.600675 0.709304 0.742498 -12.062043 -0.279700 0.000000 -3.575799 11.637361 -1.144489 -0.979937 -5.801837 -13.465066 -24.218792 -0.985605 -3.700776 57.992067 -1.696027 -7.578583 8.255107 -1.812100 -0.000000 -55.908500
5.224089 17.062006 -9.042260 177.572720 9.860286 -168.653170 -8.904877 1.926148 3.338768 -21.450616 -3.309266 -22.941662 -3.405522 -0.409986 17.080169 0.727363 0.794662 -12.321514 -0.303799 0.000000 -3.693800 11.596471 -0.948154 -0.771824 -5.770287 -12.333156 -25.413174 -0.957705 -3.665417 57.514122 -1.607625 -7.103314 7.188533 -1.605900 -0.000000 -55.829600
5.288101 17.080138 -9.165702 177.597704 9.863958 -168.733634 -8.926185 1.925884 3.223586 -21.195648 -3.135946 -21.926437 -3.400646 -0.465304 16.474511 0.739787 0.822979 -12.547041 -0.324201 0.000000 -3.731200 11.552778 -0.744350 -0.560354 -5.746969 -11.203324 -26.539907 -0.923022 -3.613913 56.835916 -1.551171 -6.846834 6.196601 -1.476000 -0.000001 -55.425000
5.352511 17.097730 -9.289743 177.636180 9.871833 -168.815062 -8.945686 1.926002 3.117762 -20.915955 -3.001807 -20.866775 -3.394194 -0.523678 15.803104 0.746135 0.825862 -12.734633 -0.340000 -0.000001 -3.719300 11.501752 -0.537112 -0.344824 -5.713223 -10.080511 -27.607425 -0.880540 -3.546199 55.959741 -1.526497 -6.802740 5.234288 -1.406800 -0.000001 -54.714400
5.416913 17.114725 -9.414709 177.696253 9.881441 -168.896161 -8.967660 1.926170 3.022780 -20.600677 -2.912782 -19.765967 -3.383044 -0.583165 15.076491 0.747142 0.811727 -12.877457 -0.351100 -0.000000 -3.692800 11.439698 -0.330161 -0.127561 -5.659012 -8.969611 -28.605883 -0.828663 -3.461813 54.875209 -1.530694 -6.938559 4.278497 -1.380100 0.000000 -53.737900
5.481111 17.130864 -9.540958 177.773055 9.898308 -168.951548 -8.989869 1.927522 2.950201 -20.260193 -2.896567 -18.666154 -3.365681 -0.643490 14.310822 0.747290 0.810367 -12.971164 -0.359200 -0.000000 -3.676900 11.366404 -0.125109 0.098270 -5.586790 -7.882800 -29.574279 -0.765725 -3.361128 53.578556 -1.558101 -7.197158 3.328941 -1.377499 0.000000 -52.567500
5.544818 17.146012 -9.668668 177.870151 9.922686 -168.977867 -9.014603 1.930832 2.899906 -19.895088 -2.948035 -17.582642 -3.340653 -0.702582 13.525163 0.747943 0.831447 -13.016162 -0.365400 -0.000000 -3.700200 11.280183 0.074061 0.332514 -5.492756 -6.830128 -30.509107 -0.690465 -3.243269 52.051397 -1.602370 -7.521802 2.410213 -1.386100 0.000000 -51.304300
5.607849 17.160020 -9.797901 177.989255 9.955970 -168.976168 -9.043629 1.937347 2.868896 -19.508872 -3.050891 -16.528586 -3.307717 -0.758175 12.740398 0.749673 0.877694 -13.016773 -0.370300 -0.000000 -3.784500 11.180599 0.263011 0.573898 -5.373051 -5.824162 -31.401577 -0.602254 -3.107327 50.274504 -1.656348 -7.858559 1.564176 -1.399600 -0.000000 -50.075400
5.670164 17.172711 -9.928551 178.129286 10.000215 -168.954077 -9.077685 1.948424 2.851000 -19.107912 -3.180687 -15.508886 -3.267798 -0.808214 11.973987 0.752470 0.946459 -12.980817 -0.374100 0.000001 -3.943500 11.068937 0.437596 0.818614 -5.224289 -4.880560 -32.234999 -0.501045 -2.952727 48.231758 -1.712385 -8.161844 0.840694 -1.417500 0.000000 -49.020400
5.731903 17.183839 -10.060426 178.286107 10.057054 -168.921859 -9.117102 1.965651 2.838887 -18.699241 -3.307587 -14.525232 -3.222886 -0.850805 11.243782 0.755458 1.027375 -12.919889 -0.376699 -0.000000 -4.180100 10.947606 0.593543 1.062157 -5.039901 -4.015674 -32.991326 -0.386951 -2.779105 45.913651 -1.763187 -8.399960 0.285303 -1.444000 0.000000 -48.262900
